<svg xmlns="http://www.w3.org/2000/svg"
     xml:space="preserve"
     id="Layer_1"
     x="0"
     y="0"
     version="1.1"
     viewBox="0 0 1000 1000">
    <style>.st1{fill:#b8babc}</style>
    <path d="M500 322.5c-100.5 0-182 81.5-182 182 0 80.4 52.1 148.6 124.5 172.7 9.1 1.7 12.4-3.9 12.4-8.8 0-4.3-.2-18.7-.2-33.9-50.6 11-61.3-21.5-61.3-21.5-8.3-21-20.2-26.6-20.2-26.6-16.5-11.3 1.2-11.1 1.2-11.1 18.3 1.3 27.9 18.8 27.9 18.8 16.2 27.8 42.6 19.8 53 15.1 1.6-11.8 6.3-19.8 11.6-24.3-40.4-4.6-82.9-20.2-82.9-89.9 0-19.9 7.1-36.1 18.8-48.8-1.9-4.6-8.1-23.1 1.8-48.2 0 0 15.3-4.9 50.1 18.7 14.5-4 30.1-6.1 45.6-6.1 15.5.1 31 2.1 45.6 6.1 34.7-23.5 50-18.7 50-18.7 9.9 25.1 3.7 43.6 1.8 48.2 11.7 12.7 18.7 29 18.7 48.8 0 69.9-42.6 85.3-83.1 89.8 6.5 5.6 12.3 16.7 12.3 33.7 0 24.3-.2 43.9-.2 49.9 0 4.8 3.3 10.5 12.5 8.7 72-24 124.1-92.2 124.1-172.6 0-100.5-81.5-182-182-182" style="fill-rule:evenodd;clip-rule:evenodd;fill:#b8babc" />
    <path d="M386.9 583.8c-.4.9-1.8 1.2-3.1.6s-2.1-1.8-1.6-2.7c.4-.9 1.8-1.2 3.1-.6 1.3.5 2.1 1.8 1.6 2.7M394.3 592c-.9.8-2.6.4-3.7-.8-1.2-1.3-1.4-3-.5-3.8s2.5-.4 3.7.8c1.2 1.3 1.4 3 .5 3.8M401.5 602.5c-1.1.8-2.9.1-4.1-1.6-1.1-1.6-1.1-3.6 0-4.3 1.1-.8 2.9-.1 4.1 1.5 1.1 1.7 1.1 3.6 0 4.4M411.3 612.6c-1 1.1-3.1.8-4.7-.7s-2-3.5-1-4.6 3.1-.8 4.7.7c1.6 1.4 2.1 3.5 1 4.6M424.9 618.5c-.4 1.4-2.5 2.1-4.5 1.5-2.1-.6-3.4-2.3-3-3.7s2.5-2.1 4.6-1.5c2 .6 3.3 2.3 2.9 3.7M439.8 619.6c.1 1.5-1.7 2.7-3.9 2.8s-3.9-1.2-4-2.6c0-1.5 1.7-2.7 3.9-2.8s4 1.1 4 2.6M453.6 617.2c.3 1.5-1.2 3-3.4 3.4-2.1.4-4.1-.5-4.3-2-.3-1.5 1.3-3 3.4-3.4 2.1-.3 4.1.5 4.3 2m0 0" class="st1" />
</svg>