<svg xmlns="http://www.w3.org/2000/svg" width="27" height="27" viewBox="0 0 27 27">
    <path fill="currentColor" fill-rule="evenodd" d="M10.858 1.558 1.7.167A1.48 1.48 0 0 0 .517.492 1.5 1.5 0 0 0 0 1.608v17.559c0 .458.375.833.833.833h2.709v-4.375c0-.808.65-1.458 1.458-1.458h2.083c.809 0 1.459.65 1.459 1.458V20h3.541V3a1.46 1.46 0 0 0-1.225-1.442M4.583 12.292h-1.25a.625.625 0 0 1 0-1.25h1.25a.625.625 0 0 1 0 1.25m-1.25-2.5h1.25a.625.625 0 0 0 0-1.25h-1.25a.625.625 0 0 0 0 1.25m1.25-2.5h-1.25a.625.625 0 0 1 0-1.25h1.25a.625.625 0 0 1 0 1.25m-1.25-2.5h1.25a.625.625 0 0 0 0-1.25h-1.25a.625.625 0 0 0 0 1.25m5.417 7.5H7.5a.625.625 0 0 1 0-1.25h1.25a.625.625 0 0 1 0 1.25m-1.25-2.5h1.25a.625.625 0 0 0 0-1.25H7.5a.625.625 0 0 0 0 1.25m1.25-2.5H7.5a.625.625 0 0 1 0-1.25h1.25a.625.625 0 0 1 0 1.25m-1.25-2.5h1.25a.625.625 0 0 0 0-1.25H7.5a.625.625 0 0 0 0 1.25M12.917 7.792l5.933 1.243c.68.15 1.15.737 1.15 1.425v8.082A1.46 1.46 0 0 1 18.542 20h-5.625zm2.708 9.708h1.25a.625.625 0 0 0 0-1.25h-1.25a.625.625 0 0 0 0 1.25m1.25-2.5h-1.25a.625.625 0 0 1 0-1.25h1.25a.625.625 0 0 1 0 1.25m-1.25-2.5h1.25a.625.625 0 0 0 0-1.25h-1.25a.625.625 0 0 0 0 1.25" clip-rule="evenodd" />
</svg>