<svg xmlns="http://www.w3.org/2000/svg" width="27" height="27" viewBox="0 0 27 27">
    <path fill="currentColor" fill-rule="evenodd" d="M7.03.002c2.398.048 4.554 1.328 5.767 3.423a6.96 6.96 0 0 1 .091 6.88l-4.96 9.077-.006.012c-.218.38-.61.606-1.046.606s-.827-.226-1.045-.606l-.007-.012-4.96-9.077a6.96 6.96 0 0 1 .091-6.88C2.17 1.33 4.325.05 6.722.002q.155-.005.308 0M4.064 6.25a2.816 2.816 0 0 0 2.812 2.813A2.816 2.816 0 0 0 9.69 6.25a2.816 2.816 0 0 0-2.813-2.812A2.816 2.816 0 0 0 4.064 6.25" clip-rule="evenodd" />
</svg>